<svg xmlns="http://www.w3.org/2000/svg" xmlns:xlink="http://www.w3.org/1999/xlink" viewBox="0 0 123.81 90.21"><defs><style>.cls-1{fill:none;}.cls-2{clip-path:url(#clip-path);}</style><clipPath id="clip-path" transform="translate(0 -0.79)"><rect class="cls-1" y="0.04" width="123.84" height="91.92"/></clipPath></defs><title>Ресурс 62</title><g id="Слой_2" data-name="Слой 2"><g id="Слой_1-2" data-name="Слой 1"><path d="M42.68,87.14a1.17,1.17,0,0,1-.46-.09C27.28,80.86,18,68.11,18,53.78c0-10,4.56-19.31,12.84-26.3s19.28-10.8,31.07-10.8a1.2,1.2,0,0,1,0,2.4C39,19.08,20.4,34.65,20.4,53.78c0,13.34,8.71,25.24,22.74,31a1.2,1.2,0,0,1-.46,2.31Zm0,0" transform="translate(0 -0.79)"/><path d="M24.86,36.19a1.2,1.2,0,0,1-1.15-.87L15.81,7.46a.84.84,0,0,1,0-.14,4.8,4.8,0,0,1,2-5.69,5.43,5.43,0,0,1,5.83,0l.1.06,24.7,17a1.2,1.2,0,1,1-1.36,2L22.45,3.76l-.16-.1a3,3,0,0,0-3.23,0,2.49,2.49,0,0,0-1,3.06,1,1,0,0,1,.06.26L26,34.66a1.21,1.21,0,0,1-1.16,1.53Zm0,0" transform="translate(0 -0.79)"/><path d="M61.91,74.77h-.55A3.24,3.24,0,0,1,58.54,73c-1.11-2.12-2.19-2.23-3.06-2.31a4,4,0,0,1-.92-.17A2.57,2.57,0,0,1,53,67.94a2.68,2.68,0,0,1,1.53-2.3c2.23-1.19,6.9-1.13,7.43-1.12a1.2,1.2,0,0,1,0,2.4h0c-1.76,0-5,.17-6.27.85l-.07,0c-.05,0-.17.13-.17.18a.84.84,0,0,0,0,.26l.32,0c1.13.11,3.24.32,5,3.62a.89.89,0,0,0,.68.47h.55a1.2,1.2,0,0,1,0,2.4Zm0,0" transform="translate(0 -0.79)"/><path d="M46.72,87.86a9.76,9.76,0,0,1-1.1-.06,7.87,7.87,0,0,1-6.11-12.75l.06-.08c.31-.44,6.19-6.39,9.66-9.9,6.84-6.36,7.06-15.39,6.59-20.22a1.2,1.2,0,1,1,2.39-.23c.51,5.27.25,15.15-7.31,22.17-3.4,3.44-9,9.13-9.43,9.64l-.06.08A5.48,5.48,0,0,0,45.7,85.4h.18a8.77,8.77,0,0,0,2.94-.19C49.88,83.35,54,76.85,60.71,76V74.3a1.2,1.2,0,0,1,2.4,0v2.82a1.2,1.2,0,0,1-1.17,1.2c-7,.18-11.19,8.39-11.23,8.47a1.22,1.22,0,0,1-.73.61,11.62,11.62,0,0,1-3.25.46Zm0,0" transform="translate(0 -0.79)"/><path d="M61.73,91c-8.1,0-12.14-4.35-12.3-4.54a1.2,1.2,0,0,1,1.78-1.61c.15.16,3.56,3.75,10.53,3.75a1.2,1.2,0,1,1,0,2.4Zm0,0" transform="translate(0 -0.79)"/><path d="M39.79,23.52a1.2,1.2,0,0,1-.9-.41C25.54,8,20.16,6.21,18.48,6.16a1.11,1.11,0,0,0-.73.15,1.2,1.2,0,0,1-2-1.27,2.77,2.77,0,0,1,2.21-1.26c4.33-.46,12,5.51,22.76,17.74a1.2,1.2,0,0,1-.9,2Zm0,0" transform="translate(0 -0.79)"/><path d="M51.33,48.81a1.2,1.2,0,0,1-1-.6l-5.07-8.7A1.2,1.2,0,1,1,47.3,38.3L52.36,47a1.2,1.2,0,0,1-1,1.81Zm0,0" transform="translate(0 -0.79)"/><path d="M51.8,57.31a1.2,1.2,0,0,1-1.13-1.61A2.4,2.4,0,0,0,50.61,54a2.15,2.15,0,0,0-1.52-.9c-1.56-.33-4.08-.8-7-1.35-3.23-.61-6.89-1.29-10.25-2l-2.19-.46a1.2,1.2,0,0,1,.5-2.35l2.17.45c3.34.68,7,1.36,10.21,2,2.93.55,5.47,1,7.06,1.36a4.41,4.41,0,0,1,3.13,2.11,4.77,4.77,0,0,1,.2,3.71,1.2,1.2,0,0,1-1.12.78Zm0,0" transform="translate(0 -0.79)"/><path d="M42.7,58.85A8.9,8.9,0,0,1,41,58.7c-9.31-1.46-8.23-9.8-8.21-9.88a1.2,1.2,0,0,1,2.37.34c-.08.62-.61,6.1,6.27,7.19a8.31,8.31,0,0,0,8.52-4A1.2,1.2,0,0,1,52,53.61a10.7,10.7,0,0,1-9.29,5.25Zm0,0" transform="translate(0 -0.79)"/><path d="M42,54.26h-.14a1.19,1.19,0,0,1-1-1.34L41,51.45a1.2,1.2,0,1,1,2.38.29l-.18,1.47A1.2,1.2,0,0,1,42,54.26Zm0,0" transform="translate(0 -0.79)"/><g class="cls-2"><path d="M8.15,87.45a1.2,1.2,0,0,1-.6-2.24c20-11.59,38.27-7.71,39-7.54A1.2,1.2,0,0,1,46.07,80c-.18,0-18.12-3.84-37.32,7.27a1.18,1.18,0,0,1-.6.16Zm0,0" transform="translate(0 -0.79)"/><path d="M47.95,76.08a1.22,1.22,0,0,1-.59-.15c-.21-.12-20.81-11.51-46.14-11h0a1.2,1.2,0,0,1,0-2.4c26-.53,47.15,11.2,47.36,11.32a1.2,1.2,0,0,1-.59,2.25Zm0,0" transform="translate(0 -0.79)"/></g><path d="M81.13,87.14a1.2,1.2,0,0,1-.46-2.31c14-5.81,22.74-17.71,22.74-31,0-19.14-18.62-34.7-41.51-34.7a1.2,1.2,0,0,1,0-2.4c11.79,0,22.82,3.84,31.07,10.8s12.84,16.33,12.84,26.3c0,14.33-9.28,27.08-24.22,33.26a1.18,1.18,0,0,1-.46.09Zm0,0" transform="translate(0 -0.79)"/><path d="M98.95,36.19a1.21,1.21,0,0,1-1.16-1.53L105.64,7a.94.94,0,0,1,.06-.25,2.49,2.49,0,0,0-1-3.06,3,3,0,0,0-3.23,0l-.16.11L76.78,20.7a1.2,1.2,0,0,1-1.36-2l24.7-17,.1-.06a5.42,5.42,0,0,1,5.82,0,4.8,4.8,0,0,1,2,5.69.71.71,0,0,1,0,.13l-7.9,27.86a1.2,1.2,0,0,1-1.15.87Zm0,0" transform="translate(0 -0.79)"/><path d="M62.44,74.77H61.9a1.2,1.2,0,0,1,0-2.4h.55a.87.87,0,0,0,.68-.46c1.73-3.31,3.84-3.52,5-3.63l.32,0a.76.76,0,0,0,0-.24c0-.08-.17-.2-.17-.2l-.07,0c-1.25-.68-4.51-.88-6.27-.85a1.17,1.17,0,0,1-1.22-1.18,1.2,1.2,0,0,1,1.18-1.22c.53,0,5.2-.07,7.43,1.12A2.7,2.7,0,0,1,70.85,68a2.56,2.56,0,0,1-1.6,2.52,4.2,4.2,0,0,1-.92.16c-.87.09-1.95.19-3.07,2.34a3.23,3.23,0,0,1-2.81,1.77Zm0,0" transform="translate(0 -0.79)"/><path d="M77.09,87.86a11.66,11.66,0,0,1-3.26-.46,1.2,1.2,0,0,1-.73-.61c0-.08-4.27-8.29-11.23-8.47a1.2,1.2,0,0,1-1.17-1.2V74.3a1.2,1.2,0,0,1,2.4,0V76c6.71.85,10.83,7.35,11.88,9.22a8.67,8.67,0,0,0,2.95.19h.18a5.48,5.48,0,0,0,5.48-5.48,5.43,5.43,0,0,0-1.17-3.39l-.09-.11c-.41-.49-6-6.19-9.46-9.66-7.52-7-7.79-16.87-7.27-22.14a1.2,1.2,0,1,1,2.39.23c-.47,4.82-.25,13.86,6.55,20.18,3.51,3.54,9.39,9.5,9.72,10l.05.07A7.79,7.79,0,0,1,86,79.93a7.89,7.89,0,0,1-7.8,7.88,9.66,9.66,0,0,1-1.1.06Zm0,0" transform="translate(0 -0.79)"/><path d="M61.85,91a1.2,1.2,0,1,1,0-2.4c7.07,0,10.74-3.74,10.77-3.77a1.2,1.2,0,0,1,1.73,1.66c-.18.18-4.42,4.51-12.5,4.51Zm0,0" transform="translate(0 -0.79)"/><path d="M84,23.52a1.2,1.2,0,0,1-.9-2C93.91,9.29,101.57,3.32,105.89,3.78A2.77,2.77,0,0,1,108.1,5a1.2,1.2,0,0,1-2,1.27,1.14,1.14,0,0,0-.73-.15c-1.69.05-7.07,1.82-20.41,17a1.21,1.21,0,0,1-.9.41Zm0,0" transform="translate(0 -0.79)"/><path d="M72.48,48.81a1.2,1.2,0,0,1-1-1.81l5.06-8.7a1.2,1.2,0,1,1,2.07,1.21l-5.06,8.7a1.2,1.2,0,0,1-1,.6Zm0,0" transform="translate(0 -0.79)"/><path d="M72,57.3a1.2,1.2,0,0,1-1.12-.78,4.79,4.79,0,0,1,.21-3.71,4.39,4.39,0,0,1,3.13-2.11c1.59-.34,4.12-.81,7.05-1.36,3.22-.6,6.87-1.29,10.21-2l2.17-.45a1.2,1.2,0,1,1,.5,2.35L92,49.73c-3.36.69-7,1.37-10.25,2-2.92.54-5.43,1-7,1.35a2.15,2.15,0,0,0-1.52.9,2.4,2.4,0,0,0-.06,1.74,1.21,1.21,0,0,1-.72,1.54,1.26,1.26,0,0,1-.41.07Zm0,0" transform="translate(0 -0.79)"/><path d="M81.1,58.86a10.71,10.71,0,0,1-9.29-5.25,1.2,1.2,0,0,1,2.05-1.24,8.36,8.36,0,0,0,8.47,4c7.1-1.12,6.35-6.94,6.32-7.19A1.2,1.2,0,0,1,91,48.81c0,.09,1.09,8.42-8.26,9.89a8.75,8.75,0,0,1-1.66.15Zm0,0" transform="translate(0 -0.79)"/><path d="M81.77,54.26a1.2,1.2,0,0,1-1.19-1.05l-.18-1.47a1.2,1.2,0,0,1,2.38-.29L83,52.92a1.2,1.2,0,0,1-1,1.34Zm0,0" transform="translate(0 -0.79)"/><path d="M115.66,87.45a1.17,1.17,0,0,1-.6-.17C95.87,76.18,77.93,80,77.75,80a1.2,1.2,0,0,1-.52-2.34c.76-.17,19-4.06,39,7.53a1.2,1.2,0,0,1-.6,2.24Zm0,0" transform="translate(0 -0.79)"/><path d="M75.86,76.08a1.2,1.2,0,0,1-.59-2.25c.21-.12,21.36-11.85,47.36-11.32a1.2,1.2,0,0,1,1.17,1.22,1.18,1.18,0,0,1-1.22,1.18c-25.37-.5-45.93,10.9-46.14,11a1.22,1.22,0,0,1-.59.15Zm0,0" transform="translate(0 -0.79)"/></g></g></svg>