<svg xmlns="http://www.w3.org/2000/svg" xmlns:xlink="http://www.w3.org/1999/xlink" viewBox="0 0 107.93 75.13"><defs><style>.cls-1{fill:none;}.cls-2{clip-path:url(#clip-path);}</style><clipPath id="clip-path" transform="translate(0 -0.87)"><rect class="cls-1" y="0.16" width="107.76" height="76.8"/></clipPath></defs><title>Ресурс 36</title><g id="Слой_2" data-name="Слой 2"><g id="Слой_1-2" data-name="Слой 1"><g class="cls-2"><path d="M53.46,76a27.79,27.79,0,0,1-5.54-.71,64.31,64.31,0,0,0-10.46-1c-7.92-.35-16.89-.75-25.61-6C-.7,60.84,4.48,50,5,49.05c1.8-4.15,6-8.54,8.34-10.77-3.27-1.71-4.73-6.39-4.8-6.63-4-14.21,7.8-24.11,7.92-24.21,17.09-14.62,38-.3,38.25-.16a1.2,1.2,0,0,1-1.37,2c-.8-.55-19.65-13.39-35.34,0-.45.38-10.7,9-7.16,21.7.46,1.5,2.27,5.48,4.93,5.52a1.2,1.2,0,0,1,.77,2.1c-.07.06-7.08,6.16-9.34,11.43l-.06.11c-.21.38-5.09,9.51,6,16.12,8.2,4.9,16.86,5.28,24.49,5.62A65.66,65.66,0,0,1,48.46,73a24.43,24.43,0,0,0,5.43.64A1.2,1.2,0,1,1,54,76Zm0,0" transform="translate(0 -0.87)"/><path d="M16.11,38.91h-.44a1.2,1.2,0,0,1,.12-2.4c.29,0,6.91.23,8.29-6.2a6.79,6.79,0,0,0-.55-3.52l-.05-.1c-.13-.32-3.34-7.83-13.44-5.74l-.2,0A10.67,10.67,0,0,0,2.3,25.41,1.2,1.2,0,0,1,.36,24a13.16,13.16,0,0,1,9.28-5.41c11.49-2.33,15.65,6.27,16,7.14a9.26,9.26,0,0,1,.77,5,10.29,10.29,0,0,1-10.34,8.24Zm0,0" transform="translate(0 -0.87)"/><path d="M27.4,39.83h-.13a1.2,1.2,0,0,1-1.07-1.32,18.41,18.41,0,0,0-5.39-15.23,1.2,1.2,0,0,1,1.56-1.82,20.6,20.6,0,0,1,6.21,17.3,1.2,1.2,0,0,1-1.19,1.08Zm0,0" transform="translate(0 -0.87)"/><path d="M1.2,17.87a1.2,1.2,0,0,1-.62-2.23,19.32,19.32,0,0,1,15.51-1,1.2,1.2,0,0,1-.79,2.26,17.08,17.08,0,0,0-13.49.8,1.18,1.18,0,0,1-.61.17Zm0,0" transform="translate(0 -0.87)"/></g><path d="M17.69,13.44a1.2,1.2,0,0,1-.66-.2A17.21,17.21,0,0,0,3.75,10.71a1.2,1.2,0,0,1-.68-2.3,19.29,19.29,0,0,1,15.28,2.83,1.2,1.2,0,0,1-.66,2.2Zm0,0" transform="translate(0 -0.87)"/><path d="M20.6,10.9a1.2,1.2,0,0,1-.93-.44A17.07,17.07,0,0,0,7.75,4.08,1.2,1.2,0,0,1,6.57,2.87,1.19,1.19,0,0,1,7.78,1.68,19.32,19.32,0,0,1,21.53,8.94a1.2,1.2,0,0,1-.93,2Zm0,0" transform="translate(0 -0.87)"/><path d="M53.82,61.61c-3.38,0-8-2.74-8.58-3.09-14.79-7.2-35.41-.74-35.62-.68a1.2,1.2,0,0,1-1.16-.25,3.14,3.14,0,0,1-.78-3.54c1.89-5.1,8.88-6.17,15.63-7.2,4.57-.7,5.78-1.61,9-4.06,1.42-1.08,3.19-2.41,5.73-4.11C46.75,32.91,53.7,33,54,33a1.2,1.2,0,0,1,0,2.4c-.06,0-6.55,0-14.56,5.33-2.49,1.66-4.22,3-5.62,4-3.39,2.56-4.94,3.73-10.11,4.52-7.23,1.1-12.44,2.16-13.76,5.7a1.1,1.1,0,0,0-.07.33c4.39-1.25,22.54-5.71,36.5,1.11l.1.05c1.25.77,5,2.77,7.38,2.77a1.2,1.2,0,1,1,0,2.4Zm0,0" transform="translate(0 -0.87)"/><path d="M42.87,46.36a2.14,2.14,0,0,1-1.43-.52c-1.05-.91-1-2.69.21-4s2.92-1.7,4-.78a2.31,2.31,0,0,1,.71,2.11,3.87,3.87,0,0,1-.92,1.93,3.82,3.82,0,0,1-1.78,1.18,2.79,2.79,0,0,1-.76.11Zm1-3.34a1.69,1.69,0,0,0-.43.36,1.72,1.72,0,0,0-.3.48,1.69,1.69,0,0,0,.43-.36,1.71,1.71,0,0,0,.3-.48Zm0,0" transform="translate(0 -0.87)"/><g class="cls-2"><path d="M15.26,61.57a7.62,7.62,0,0,1-7.63-5.18,1.2,1.2,0,0,1,2.32-.63c.06.2,1.38,4.52,7.75,3.12,1.83-.4,3.88-1.07,6.06-1.78,6.08-2,13-4.2,19.06-2.19a1.2,1.2,0,0,1-.75,2.28c-5.34-1.76-11.84.34-17.56,2.2-2.23.72-4.34,1.41-6.28,1.84a13.73,13.73,0,0,1-2.95.34Zm0,0" transform="translate(0 -0.87)"/><path d="M54,76a1.2,1.2,0,0,1,0-2.4A32.87,32.87,0,0,0,59.49,73a62.93,62.93,0,0,1,10.89-1c7.67-.29,16.36-.6,24.46-5.66,11.17-7,6.22-15.74,6-16.11l-.07-.14c-2.27-5.29-9.28-11.37-9.35-11.43a1.2,1.2,0,0,1,.77-2.11c3.17-.05,4.92-5.5,4.94-5.55,3.54-12.68-7-21.57-7.15-21.66C83.38,3.65,75.45,1.93,66.39,4.16A39.06,39.06,0,0,0,54.62,9.25a1.2,1.2,0,0,1-1.38-2c.21-.15,21.16-14.47,38.27.17.1.08,11.87,10,7.91,24.17-.08.26-1.55,4.95-4.82,6.66,2.33,2.23,6.54,6.61,8.34,10.76.57,1.05,5.74,11.43-6.84,19.28-8.64,5.39-17.67,5.73-25.64,6A61.42,61.42,0,0,0,60,75.3a34.38,34.38,0,0,1-6,.7Zm0,0" transform="translate(0 -0.87)"/><path d="M91.82,38.91c-3.21,0-9-1.66-10.33-8.16a9.24,9.24,0,0,1,.76-5c.39-.88,4.55-9.47,16-7.14A13.15,13.15,0,0,1,107.57,24a1.2,1.2,0,1,1-1.93,1.42A10.68,10.68,0,0,0,98.08,21l-.19,0c-10.1-2.09-13.32,5.42-13.45,5.74l0,.1a6.86,6.86,0,0,0-.54,3.54c1.36,6.44,8,6.19,8.28,6.17a1.2,1.2,0,0,1,.13,2.4Zm0,0" transform="translate(0 -0.87)"/><path d="M80.53,39.83a1.2,1.2,0,0,1-1.19-1.08,20.61,20.61,0,0,1,6.21-17.3,1.2,1.2,0,1,1,1.56,1.82,18.21,18.21,0,0,0-5.39,15.23,1.21,1.21,0,0,1-1.07,1.32Zm0,0" transform="translate(0 -0.87)"/><path d="M106.73,17.87a1.16,1.16,0,0,1-.61-.17,17.24,17.24,0,0,0-13.49-.8,1.2,1.2,0,1,1-.79-2.26,19.32,19.32,0,0,1,15.51,1,1.2,1.2,0,0,1-.61,2.23Zm0,0" transform="translate(0 -0.87)"/></g><path d="M90.25,13.44a1.2,1.2,0,0,1-.66-2.2,19.29,19.29,0,0,1,15.28-2.83,1.2,1.2,0,0,1-.68,2.3,17.2,17.2,0,0,0-13.28,2.53,1.2,1.2,0,0,1-.66.2Zm0,0" transform="translate(0 -0.87)"/><path d="M87.34,10.9a1.21,1.21,0,0,1-.76-.27,1.2,1.2,0,0,1-.17-1.69,19.3,19.3,0,0,1,13.74-7.26,1.21,1.21,0,0,1,1.21,1.18,1.2,1.2,0,0,1-1.18,1.21,17.22,17.22,0,0,0-11.92,6.38,1.21,1.21,0,0,1-.93.44Zm0,0" transform="translate(0 -0.87)"/><path d="M54.21,61.61a1.2,1.2,0,0,1,0-2.4c2.37,0,6.13-2,7.38-2.77l.1-.05c14-6.83,32.11-2.36,36.5-1.11a1,1,0,0,0-.06-.31c-1.33-3.57-6.54-4.62-13.77-5.73-5.17-.79-6.71-2-10.1-4.52-1.39-1.05-3.13-2.36-5.62-4-8.07-5.38-14.49-5.34-14.55-5.33A1.2,1.2,0,0,1,54,33c.29,0,7.25-.05,15.93,5.73,2.55,1.69,4.31,3,5.73,4.11,3.24,2.44,4.45,3.36,9,4.06,6.75,1,13.73,2.1,15.65,7.24a3.13,3.13,0,0,1-.8,3.49,1.2,1.2,0,0,1-1.16.25c-.21-.07-20.85-6.52-35.62.68-.57.35-5.2,3.09-8.58,3.09Zm0,0" transform="translate(0 -0.87)"/><path d="M65.06,46.36a2.73,2.73,0,0,1-.76-.11,4,4,0,0,1-2.7-3.11A2.29,2.29,0,0,1,62.3,41c1.05-.91,2.8-.57,4,.78s1.27,3.13.22,4a2.18,2.18,0,0,1-1.43.51Zm-.73-2.87a1.67,1.67,0,0,0,.43.36,1.82,1.82,0,0,0-.3-.48A1.75,1.75,0,0,0,64,43a1.65,1.65,0,0,0,.3.48Zm0,0" transform="translate(0 -0.87)"/><path d="M92.77,61.57a13.74,13.74,0,0,1-2.95-.34c-1.94-.43-4-1.11-6.28-1.84-5.73-1.86-12.22-4-17.57-2.2a1.2,1.2,0,1,1-.75-2.28c6.09-2,13,.23,19.05,2.2,2.18.71,4.23,1.37,6.06,1.78C96.8,60.31,98,56,98.08,55.78a1.2,1.2,0,0,1,2.32.62,7.62,7.62,0,0,1-7.63,5.18Zm0,0" transform="translate(0 -0.87)"/></g></g></svg>