<svg xmlns="http://www.w3.org/2000/svg" xmlns:xlink="http://www.w3.org/1999/xlink" viewBox="0 0 92.71 63.54"><defs><style>.cls-1{fill:none;}.cls-2{clip-path:url(#clip-path);}</style><clipPath id="clip-path" transform="translate(0 -0.46)"><rect class="cls-1" y="0.16" width="92.88" height="64.8"/></clipPath></defs><title>Ресурс 31</title><g id="Слой_2" data-name="Слой 2"><g id="Слой_1-2" data-name="Слой 1"><path d="M31.16,42.84A13.19,13.19,0,0,1,24.39,41a12.32,12.32,0,0,1-5.73-7.74,13,13,0,0,1,1.57-9.92,12.88,12.88,0,0,1,17.63-4.14c7.25,4.42,6.55,15.4,6,18.1a1.69,1.69,0,0,1-.75,1.21L43,38.6c-4,2.81-8.08,4.23-11.83,4.23Zm0-23.1a10.42,10.42,0,0,0-8.87,4.9A10.63,10.63,0,0,0,21,32.72,10,10,0,0,0,25.61,39c6.15,3.62,13.1-.31,15.91-2.26.39-2,1.15-11.73-4.9-15.42a10.43,10.43,0,0,0-5.47-1.54Zm0,0" transform="translate(0 -0.46)"/><path d="M33.39,30.62a1.55,1.55,0,1,1-1.55-1.54,1.55,1.55,0,0,1,1.55,1.54Zm0,0" transform="translate(0 -0.46)"/><g class="cls-2"><path d="M46.12,64c-6,0-13.93-3.79-20.79-9.94C17.66,47.17,13,38.7,12.44,30.81S14.14,16,18.86,10.92C24.71,4.67,34,1.5,46.34,1.5a1.2,1.2,0,0,1,0,2.4C34.65,3.9,26,6.81,20.61,12.56c-4.25,4.54-6.25,10.8-5.77,18.09C15.59,42.13,31.23,61.6,46,61.6h.32a1.2,1.2,0,0,1,0,2.4Zm0,0" transform="translate(0 -0.46)"/><path d="M13.75,24.6l-.23,0a21.42,21.42,0,0,1-8.79-4A13,13,0,0,1,.16,12.72a10.57,10.57,0,0,1,2.1-8.53A10.39,10.39,0,0,1,10.16.47a13.13,13.13,0,0,1,8.6,2.92A24.6,24.6,0,0,1,23.29,8,1.2,1.2,0,0,1,21.34,9.4a22.65,22.65,0,0,0-4.06-4.13,10.76,10.76,0,0,0-7-2.41A8,8,0,0,0,4.12,5.71a8.21,8.21,0,0,0-1.59,6.63,10.6,10.6,0,0,0,3.72,6.42A19.33,19.33,0,0,0,14,22.22a1.2,1.2,0,0,1-.23,2.38Zm0,0" transform="translate(0 -0.46)"/></g><path d="M13.89,21.2h-.09a8.81,8.81,0,0,1-5-2C5.29,16.3,4.54,11.32,7.17,8.09a7.17,7.17,0,0,1,5.33-2.6,8.76,8.76,0,0,1,5.89,2,9.13,9.13,0,0,1,2,2.24,1.2,1.2,0,0,1-2,1.27,6.72,6.72,0,0,0-1.46-1.65,6.36,6.36,0,0,0-4.27-1.47A4.79,4.79,0,0,0,9,9.61c-1.79,2.2-1.19,5.67,1.34,7.73A6.49,6.49,0,0,0,14,18.8a1.2,1.2,0,0,1-.08,2.4Zm0,0" transform="translate(0 -0.46)"/><path d="M46.34,58.9c-1.93,0-5-2.43-6-3.17-4.27-3.21-10,.5-10,.54a1.2,1.2,0,0,1-1.33-2c.29-.19,7.17-4.69,12.85-.43,1.6,1.3,3.75,2.66,4.48,2.66a1.2,1.2,0,0,1,0,2.4Zm0,0" transform="translate(0 -0.46)"/><path d="M44.81,52.8a3.17,3.17,0,0,1-1.57-.44A2.32,2.32,0,0,1,42,51a3.28,3.28,0,0,1,.31-2.48l1.13-1.82A1.49,1.49,0,0,1,46,48.29l-.77,1.23A1.49,1.49,0,0,1,46.73,52a2.56,2.56,0,0,1-1.92.84Zm0,0" transform="translate(0 -0.46)"/><path d="M61.55,42.84c-3.75,0-7.83-1.43-11.83-4.23l-.09-.06a1.68,1.68,0,0,1-.75-1.21c-.58-2.7-1.28-13.67,6-18.1a12.88,12.88,0,0,1,17.63,4.14,13,13,0,0,1,1.57,9.92A12.34,12.34,0,0,1,68.32,41a13.21,13.21,0,0,1-6.77,1.8ZM51.2,36.71C54,38.65,61,42.58,67.1,39a9.92,9.92,0,0,0,4.62-6.24,10.6,10.6,0,0,0-1.28-8.08A10.48,10.48,0,0,0,56.1,21.28C50,25,50.81,34.74,51.2,36.71Zm0,0" transform="translate(0 -0.46)"/><path d="M62.42,30.62a1.55,1.55,0,1,1-1.55-1.54,1.54,1.54,0,0,1,1.55,1.54Zm0,0" transform="translate(0 -0.46)"/><g class="cls-2"><path d="M46.6,64h-.25a1.2,1.2,0,0,1,0-2.4h.32c14.8,0,30.44-19.47,31.19-30.94.48-7.3-1.52-13.56-5.77-18.1-5.38-5.74-14-8.65-25.73-8.65a1.2,1.2,0,0,1,0-2.4C58.75,1.5,68,4.67,73.85,10.92c4.72,5,6.94,11.92,6.42,19.9S75.06,47.17,67.39,54.06C60.53,60.21,52.59,64,46.6,64Zm0,0" transform="translate(0 -0.46)"/><path d="M79,24.6a1.2,1.2,0,0,1-.23-2.38,19.15,19.15,0,0,0,7.72-3.46,10.61,10.61,0,0,0,3.72-6.42A8.23,8.23,0,0,0,88.6,5.71a8,8,0,0,0-6.13-2.84,10.73,10.73,0,0,0-7,2.38A22.79,22.79,0,0,0,71.37,9.4,1.2,1.2,0,0,1,69.43,8,24.79,24.79,0,0,1,74,3.36,13.11,13.11,0,0,1,82.55.47a10.41,10.41,0,0,1,7.91,3.73,10.58,10.58,0,0,1,2.09,8.53A13,13,0,0,1,88,20.61a21.43,21.43,0,0,1-8.79,4l-.23,0Zm0,0" transform="translate(0 -0.46)"/></g><path d="M78.82,21.2a1.2,1.2,0,0,1-.08-2.4,6.53,6.53,0,0,0,3.61-1.46c2.53-2.07,3.13-5.54,1.34-7.73a4.8,4.8,0,0,0-3.58-1.72,6.36,6.36,0,0,0-4.26,1.47A6.51,6.51,0,0,0,74.39,11a1.2,1.2,0,0,1-2-1.27,9,9,0,0,1,2-2.24,8.75,8.75,0,0,1,5.89-2,7.17,7.17,0,0,1,5.33,2.6c2.63,3.23,1.88,8.21-1.68,11.11a8.81,8.81,0,0,1-5,2Zm0,0" transform="translate(0 -0.46)"/><path d="M46.37,58.9a1.2,1.2,0,0,1,0-2.4c.72,0,2.92-1.39,4.44-2.63,5.72-4.29,12.6.2,12.89.39a1.2,1.2,0,0,1-1.33,2c-.06,0-5.77-3.74-10.08-.51-.87.71-4,3.14-5.92,3.14Zm0,0" transform="translate(0 -0.46)"/><path d="M47.9,52.8A2.57,2.57,0,0,1,46,52a1.49,1.49,0,0,1,1.5-2.45l-.77-1.23a1.49,1.49,0,0,1,2.52-1.58l1.09,1.75A3.33,3.33,0,0,1,50.69,51a2.35,2.35,0,0,1-1.21,1.35,3.17,3.17,0,0,1-1.58.44Zm0,0" transform="translate(0 -0.46)"/></g></g></svg>