<svg xmlns="http://www.w3.org/2000/svg" xmlns:xlink="http://www.w3.org/1999/xlink" viewBox="0 0 100.66 77"><defs><style>.cls-1{fill:none;}.cls-2{clip-path:url(#clip-path);}</style><clipPath id="clip-path" transform="translate(0 -1)"><rect class="cls-1" width="100.8" height="78.96"/></clipPath></defs><title>Ресурс 11</title><g id="Слой_2" data-name="Слой 2"><g id="Слой_1-2" data-name="Слой 1"><path d="M21.21,28.06a1.31,1.31,0,0,1-.32,0c-5.78-1.63-9.23-6.5-9.23-13a14,14,0,0,1,27.77-2.53,1.2,1.2,0,1,1-2.36.43,11.6,11.6,0,0,0-23,2.1c0,5.47,2.73,9.37,7.48,10.71a1.2,1.2,0,0,1-.32,2.36Zm0,0" transform="translate(0 -1)"/><path d="M22.25,22.84A9.85,9.85,0,1,1,32.1,13a9.86,9.86,0,0,1-9.85,9.85Zm0-17.3A7.45,7.45,0,1,0,29.7,13a7.46,7.46,0,0,0-7.45-7.45Zm0,0" transform="translate(0 -1)"/><g class="cls-2"><path d="M22.35,17.2a3.9,3.9,0,1,1,3.9-3.9,3.9,3.9,0,0,1-3.9,3.9Zm0-5.4a1.5,1.5,0,1,0,1.5,1.5,1.5,1.5,0,0,0-1.5-1.5Zm0,0" transform="translate(0 -1)"/><path d="M50.05,78C10.35,78,1.88,52.62.22,44.84c0-.09,0-.16,0-.21a3.12,3.12,0,0,1,0-2.15l.05-.11,1.63-3.12A5.95,5.95,0,0,1,6,29.05a3.84,3.84,0,0,1,1,.14,6,6,0,0,1-.53-2.46,5.94,5.94,0,0,1,8.6-5.31A1.2,1.2,0,0,1,14,23.57,3.54,3.54,0,0,0,9.68,29a2.06,2.06,0,0,1,.32,2.2,1.83,1.83,0,0,1-2,.77,5.86,5.86,0,0,1-1.14-.29,2.84,2.84,0,0,0-.84-.2,3.54,3.54,0,0,0-2,6.48,1.2,1.2,0,0,1,.4,1.55l-2,3.91a.74.74,0,0,0,0,.41,4.06,4.06,0,0,1,.14.53C4.13,51.68,12.15,75.6,50.05,75.6a1.2,1.2,0,1,1,0,2.4Zm0,0" transform="translate(0 -1)"/></g><path d="M50.39,57.06c-13.39,0-23.54-5.35-31-9.25-1.94-1-3.62-1.91-5.14-2.58-6.9-3.08-12.17-.82-12.23-.8a1.2,1.2,0,1,1-1-2.2c.25-.11,6.31-2.71,14.17.8,1.59.71,3.38,1.66,5.27,2.65,7.19,3.79,17,9,29.84,9a1.2,1.2,0,0,1,0,2.4Zm0,0" transform="translate(0 -1)"/><path d="M45.05,47a3.2,3.2,0,0,1,0-6.4,1.2,1.2,0,1,1,0,2.4.8.8,0,0,0,0,1.6,1.2,1.2,0,1,1,0,2.4Zm0,0" transform="translate(0 -1)"/><path d="M49.18,7.64A1.2,1.2,0,0,1,48,6.57a3.54,3.54,0,0,0-7-.14,1.2,1.2,0,1,1-2.37-.37,5.94,5.94,0,0,1,11.77.24,1.2,1.2,0,0,1-1.06,1.32Zm0,0" transform="translate(0 -1)"/><path d="M37.08,10.4a1.2,1.2,0,0,1-.6-2.24,4.71,4.71,0,0,0,2.2-2.38,1.2,1.2,0,0,1,2.27.79,7.1,7.1,0,0,1-3.26,3.67,1.23,1.23,0,0,1-.6.16Zm0,0" transform="translate(0 -1)"/><path d="M53.91,15.49a1.2,1.2,0,0,1-1.19-1.06,2.41,2.41,0,0,0-2.39-2.12h0a2.43,2.43,0,0,0-2.38,2.06A1.2,1.2,0,1,1,45.56,14a4.78,4.78,0,0,1,4.74-4.1h0a4.81,4.81,0,0,1,4.78,4.24,1.2,1.2,0,0,1-1.05,1.33Zm0,0" transform="translate(0 -1)"/><path d="M79.45,28.06a1.2,1.2,0,0,1-.32-2.36c4.75-1.34,7.48-5.24,7.48-10.71a11.6,11.6,0,0,0-23-2.1,1.2,1.2,0,0,1-2.36-.43A14,14,0,0,1,89,15c0,6.53-3.45,11.39-9.23,13a1.31,1.31,0,0,1-.32,0Zm0,0" transform="translate(0 -1)"/><path d="M78.41,22.84A9.85,9.85,0,1,1,88.26,13a9.86,9.86,0,0,1-9.85,9.85Zm0-17.3A7.45,7.45,0,1,0,85.86,13a7.46,7.46,0,0,0-7.45-7.45Zm0,0" transform="translate(0 -1)"/><g class="cls-2"><path d="M78.31,17.2a3.9,3.9,0,1,1,3.9-3.9,3.91,3.91,0,0,1-3.9,3.9Zm0-5.4a1.5,1.5,0,1,0,1.5,1.5,1.5,1.5,0,0,0-1.5-1.5Zm0,0" transform="translate(0 -1)"/><path d="M50.61,78a1.2,1.2,0,0,1,0-2.4c37.9,0,45.93-23.92,47.48-31.25a4.06,4.06,0,0,1,.14-.53.75.75,0,0,0,0-.42l-2-3.9a1.2,1.2,0,0,1,.4-1.56,3.54,3.54,0,0,0-2-6.48,2.92,2.92,0,0,0-.84.2,5.63,5.63,0,0,1-1.15.29,1.82,1.82,0,0,1-2-.77A2,2,0,0,1,90.94,29a3.61,3.61,0,0,0,.84-2.3,3.54,3.54,0,0,0-3.54-3.54,3.5,3.5,0,0,0-1.58.37,1.2,1.2,0,1,1-1.07-2.14,5.87,5.87,0,0,1,2.65-.62,5.94,5.94,0,0,1,5.41,8.39,4,4,0,0,1,1-.14,5.94,5.94,0,0,1,4.14,10.2l1.63,3.12.05.11a3.12,3.12,0,0,1,0,2.15l0,.21C98.79,52.62,90.31,78,50.61,78Zm0,0" transform="translate(0 -1)"/></g><path d="M50.28,57.06a1.2,1.2,0,1,1,0-2.4c12.8,0,22.64-5.19,29.84-9,1.9-1,3.68-1.94,5.27-2.65,7.86-3.51,13.92-.91,14.18-.8a1.2,1.2,0,0,1-1,2.2c-.05,0-5.38-2.26-12.23.8-1.52.68-3.2,1.56-5.14,2.58-7.41,3.91-17.56,9.25-31,9.25Zm0,0" transform="translate(0 -1)"/><path d="M55.61,47a1.2,1.2,0,0,1,0-2.4.8.8,0,1,0,0-1.6,1.2,1.2,0,0,1,0-2.4,3.2,3.2,0,1,1,0,6.4Zm0,0" transform="translate(0 -1)"/><path d="M51.48,7.64h-.14A1.2,1.2,0,0,1,50.29,6.3a5.94,5.94,0,0,1,11.77-.24,1.2,1.2,0,1,1-2.37.37,3.54,3.54,0,0,0-7,.14,1.2,1.2,0,0,1-1.19,1.07Zm0,0" transform="translate(0 -1)"/><path d="M63.37,10.27a1.19,1.19,0,0,1-.63-.17,7,7,0,0,1-3-3.52A1.2,1.2,0,1,1,62,5.78,4.66,4.66,0,0,0,64,8a1.2,1.2,0,0,1-.63,2.22Zm0,0" transform="translate(0 -1)"/><path d="M50.34,9.1A2.3,2.3,0,0,1,48,6.8a1.2,1.2,0,0,1,2.3-.48,1.2,1.2,0,0,1,2.3.48,2.3,2.3,0,0,1-2.3,2.3Zm0,0" transform="translate(0 -1)"/></g></g></svg>