<svg xmlns="http://www.w3.org/2000/svg" xmlns:xlink="http://www.w3.org/1999/xlink" viewBox="0 0 368 233.05"><defs><style>.cls-1{fill:none;}.cls-2{clip-path:url(#clip-path);}</style><clipPath id="clip-path" transform="translate(0 -0.95)"><rect class="cls-1" y="0.24" width="367.92" height="234.72"/></clipPath></defs><title>Ресурс 19</title><g id="Слой_2" data-name="Слой 2"><g id="Слой_1-2" data-name="Слой 1"><path d="M241.39,135.35a6,6,0,1,0,4.23,1.75,6.05,6.05,0,0,0-4.23-1.75Zm0,0" transform="translate(0 -0.95)"/><g class="cls-2"><path d="M314,135.35a6,6,0,1,0,4.24,1.75,6.05,6.05,0,0,0-4.24-1.75Zm0,0" transform="translate(0 -0.95)"/><path d="M257.13,234a6,6,0,0,0,4.11-1.63c16.82-15.9,23.86-42.31,25.55-49.69,20.2-.84,35.83-4.57,46.54-11.13,11.92-7.29,18.22-18.37,18.22-32a63.91,63.91,0,0,0-4-22.11c15.67-13.57,20-27.39,20.19-28.15a6,6,0,0,0-2.1-6.46c-14.19-10.89-31.92-11.12-45.22-9a38.31,38.31,0,0,0-8.84-24c-18.09-22-46.74-29-48-29.26a6,6,0,0,0-6.55,2.84c-15.32-10.48-36.4-19-64.53-19a6,6,0,0,0-6,6v7C169.76,9,132.8-6,101.85,4.66a6,6,0,0,0-4,5.66V30.07C83,31.1,44.26,35.84,26.56,57.43a6,6,0,0,0,.29,7.92L31,69.73a123.05,123.05,0,0,0-16.14,24A134.93,134.93,0,0,0,1,172.51,6,6,0,0,0,7,177.79H18.15c6.72,32.17,32.27,53.86,33.42,54.82A6,6,0,0,0,55.41,234h56.48a6,6,0,0,0,6-6v-8.07a23.11,23.11,0,0,1,21.6-23H171.6a23.07,23.07,0,0,1,23.06,23V228a6,6,0,0,0,6,6Zm3.95-174.6a6,6,0,0,0,7.18-5.87V34.45c8.82,3.25,23.69,10.21,34.07,22.87a26.74,26.74,0,0,1,6.19,18.35,72.86,72.86,0,0,0-30.84-7,87.33,87.33,0,0,0-32.48,5.8A66.25,66.25,0,0,0,234.75,54ZM12.39,165.82A120.93,120.93,0,0,1,25.28,99.67c8.45-16.46,18-25.5,18.06-25.58a6,6,0,0,0,.26-8.51l-4.15-4.36c20.34-18.48,64-19.45,64.46-19.46a6,6,0,0,0,5.89-6v-21C144.62,5.86,189,32.14,189.48,32.42a6,6,0,0,0,9.07-5.13V16.44C221,17.5,240.34,24.6,256.28,37.56V46.2l-37.51-7.62a6,6,0,0,0-4.9,10.57c.18.14,12.28,9.86,18.2,24.21-12.91-1.59-29.14-.67-42.34,9.44a6,6,0,0,0-2.1,6.46c.22.74,4.37,14.13,19.43,27.49a80,80,0,0,0-3.23,22.77c0,10.66,3.53,19.47,10.51,26.3ZM273.3,160.7v2.81h-4.15a4,4,0,0,0-2.46,7.11C223.82,168.38,217.06,153,216,143.86a25.05,25.05,0,0,1,48.93-5.51c-2.94,1.83-4.63,4.4-4.63,7.47,0,5,5.61,12.58,13,14.87ZM227.52,85a61.44,61.44,0,0,0-5.77,5.47,63.62,63.62,0,0,0-9.95,14.37,58.25,58.25,0,0,1-11-15c8.36-4.75,18.13-5.54,26.74-4.84ZM105.9,222H93.79c-.78-5.23-.67-9.9,2.52-13.79,2.33-2.84,6.92-6,15.84-8.23-3.94,5.66-6.25,14.62-6.25,22Zm100.74,0c0-19.32-15.72-37.09-35-37.09H139c-26.77.57-43.8,5.75-52,15.71-5.77,7-6.11,15-5.36,21.38h-24c-5.15-4.8-21.64-21.57-27.28-44.24H235.86c10.27,3.18,23,4.84,38.55,5-2.23,8.43-8.19,27.13-19.75,39.2H241.23l5.44-16.32a6,6,0,0,0-11.36-3.79L228.61,222Zm65.84-86.28A33,33,0,0,0,218,122,53.28,53.28,0,0,1,234.77,94.4c-.17,1-.37,2-.64,3a6,6,0,0,0,4.29,7.3,6.1,6.1,0,0,0,1.51.2,6,6,0,0,0,5.79-4.49,47.16,47.16,0,0,0,1.5-13.84,69.8,69.8,0,0,1,24.48-5.68V94.07a6,6,0,0,0,12,0V81A62.32,62.32,0,0,1,306,87.68,41.64,41.64,0,0,1,302,95.52a6,6,0,0,0,9.86,6.79,46.56,46.56,0,0,0,4.36-8,61.86,61.86,0,0,1,19.84,26.55,33,33,0,0,0-53.19,14.93,34.68,34.68,0,0,0-10.43,0Zm16.23,34.86a4,4,0,0,0-2.47-7.1h-4.15v-2.8a19.16,19.16,0,0,0,7.93-4.95c1.19-1.2,5.07-5.47,5.07-9.93,0-3.07-1.69-5.64-4.62-7.47a25.06,25.06,0,0,1,48.89,4.95c-2.2,16.48-19.19,25.64-50.64,27.31Zm53.5-64.47a76.21,76.21,0,0,0-18.12-20.8c9.41-1.26,20.88-1,30.52,4.47a59.55,59.55,0,0,1-12.39,16.33Zm0,0" transform="translate(0 -0.95)"/></g></g></g></svg>