<svg xmlns="http://www.w3.org/2000/svg" xmlns:xlink="http://www.w3.org/1999/xlink" viewBox="0 0 368 192.1"><defs><style>.cls-1{fill:none;}.cls-2{clip-path:url(#clip-path);}</style><clipPath id="clip-path" transform="translate(0 -0.9)"><rect class="cls-1" y="0.04" width="367.92" height="193.92"/></clipPath></defs><title>Ресурс 8</title><g id="Слой_2" data-name="Слой 2"><g id="Слой_1-2" data-name="Слой 1"><g class="cls-2"><path d="M180.93,154.53A24.09,24.09,0,0,1,205,178.59V187a6,6,0,0,0,6,6h58.58a6,6,0,0,0,4.15-1.65c17.49-16.53,24.76-44.06,26.48-51.55,21.27-.81,37.71-4.68,48.93-11.54,12.31-7.53,18.82-19,18.82-33.07,0-39-35.72-73.26-76.44-73.26-17.47,0-32.72,4-45,11.77C219.87,12.85,187.38.9,153,.9,84.09.9,22.7,49,.28,120.51A6,6,0,0,0,6,128.36H20.92a6,6,0,0,0,0,.83c4.91,36.39,34.34,61.36,35.59,62.41a6,6,0,0,0,3.87,1.4H119a6,6,0,0,0,6-6v-8.37a24.14,24.14,0,0,1,22.57-24.06ZM347.78,66.36H233.25c8.13-17.43,25-31.13,54.28-32.28V51.94a4,4,0,0,0,8.06,0V34.15a66.67,66.67,0,0,1,52.2,32.21ZM128.05,116.27l-35-35,38.46-28.59h43.05l38.51,28.63-34.37,35Zm87.1-19.89A37.4,37.4,0,0,0,221,116.27H195.61Zm18.51-52a68.3,68.3,0,0,0-14.88,26.12l-34.2-25.43L206,23.7A145.37,145.37,0,0,1,236.7,41.34c-1,1-2.06,2-3,3ZM193.44,19.15,172,40.59H132L111,19.63a135.6,135.6,0,0,1,82.4-.49Zm-94.8,5.17L120.28,46,81.82,74.54H36.66C53,52.13,74.42,34.79,98.64,24.31Zm-70,62.31H81.32L111,116.27H14.46A171.23,171.23,0,0,1,28.63,86.62Zm84.33,92v2.33H100.08c-.84-5.52-.75-10.46,2.63-14.58,2.47-3,7.37-6.34,17-8.7a36,36,0,0,0-6.72,21Zm34.17-36.14c-27.71.59-45.33,5.94-53.77,16.23-6,7.31-6.31,15.59-5.49,22.24H62.74C57,175.52,37,155.16,33.05,128.36h200.7c12.14,7.42,29.84,11.21,54,11.57-2.27,8.66-8.48,28.35-20.63,41H252.9l5.72-17.15a6,6,0,1,0-11.46-3.82l-7,21H217.09v-2.33a36.18,36.18,0,0,0-36.16-36.14Zm144.43-14.57c-64.36,0-64.36-24.61-64.36-32.7a73.29,73.29,0,0,1,1.9-16.76l.37,0H353.23a54.38,54.38,0,0,1,2.69,16.74c0,21.7-21.66,32.7-64.36,32.7Zm0,0" transform="translate(0 -0.9)"/></g><path d="M295.67,117.47h-7.82a4,4,0,0,0,0,8.05h7.82a4,4,0,0,0,0-8.05Zm0,0" transform="translate(0 -0.9)"/><path d="M253.9,91a6,6,0,1,0,4.27,1.77A6.06,6.06,0,0,0,253.9,91Zm0,0" transform="translate(0 -0.9)"/><path d="M329.22,91a6,6,0,1,0,4.27,1.77A6.08,6.08,0,0,0,329.22,91Zm0,0" transform="translate(0 -0.9)"/><path d="M303.83,101.91a3.24,3.24,0,1,0,2.28.95,3.23,3.23,0,0,0-2.28-.95Zm0,0" transform="translate(0 -0.9)"/><path d="M279.29,101.91a3.22,3.22,0,1,0,2.28.95,3.27,3.27,0,0,0-2.28-.95Zm0,0" transform="translate(0 -0.9)"/></g></g></svg>