<svg xmlns="http://www.w3.org/2000/svg" viewBox="0 0 496 464"><defs><style>.cls-1{fill:#f0bc5e;}</style></defs><title>Ресурс 30</title><g id="Слой_2" data-name="Слой 2"><g id="Слой_1-2" data-name="Слой 1"><path d="M248,448c-34.32,0-48.28-26.49-48.85-27.62l-14.3,7.19C185.59,429.06,203.57,464,248,464a71.2,71.2,0,0,0,63.16-36.43l-14.31-7.16A55.56,55.56,0,0,1,248,448Zm0,0"/><path class="cls-1" d="M270.81,56H225.18a130.25,130.25,0,0,0-59.24,14.29l3,5.54a386.05,386.05,0,0,1,47,184.41v44.32a30.18,30.18,0,0,1,5.62-.56h52.77a29.66,29.66,0,0,1,5.62.57V260.25A386.19,386.19,0,0,1,327,75.83l3-5.54A130.28,130.28,0,0,0,270.81,56Zm0,0"/><path class="cls-1" d="M209,365.26l-10.52-13.14A29.4,29.4,0,0,1,202.7,311c-1.17-.87-2.34-1.71-3.51-2.65A63.4,63.4,0,0,0,176,304a64,64,0,1,0,60.5,84.78,52.36,52.36,0,0,1,2.89-5.6A49.9,49.9,0,0,1,209,365.26Zm0,0"/><path class="cls-1" d="M320,304a63.56,63.56,0,0,0-23.19,4.34c-1.17.95-2.34,1.78-3.51,2.65a29.41,29.41,0,0,1,4.21,41.12L287,365.26a49.85,49.85,0,0,1-30.37,17.91,56.33,56.33,0,0,1,2.89,5.6A64,64,0,1,0,320,304Zm0,0"/><path d="M152,168a47,47,0,0,0-33,13.66L100.69,200,119,218.34a46.63,46.63,0,0,0,65.94,0L203.31,200,185,181.66A47,47,0,0,0,152,168Zm21.66,39a30.63,30.63,0,0,1-43.31,0l-7-7,7-7a30.63,30.63,0,0,1,43.31,0l7,7Zm0,0"/><path d="M468.3,0A172.85,172.85,0,0,0,346,50.64L333.49,63.2A138.3,138.3,0,0,0,270.82,48H225.19a138.27,138.27,0,0,0-62.67,15.2L150,50.64A172.85,172.85,0,0,0,27.7,0H0V8C0,24.2.82,40.57,2.43,56.68L6.62,98.55C7.53,107.76,8,117.1,8,126.31A115.43,115.43,0,0,0,57,220.7a136.71,136.71,0,0,0,17.86,85.81l25.41,43.55A325.79,325.79,0,0,0,36.11,377l7.77,14a309.83,309.83,0,0,1,64.7-26.69l3.55,6.06c0-.79-.12-1.56-.12-2.36,0-1.61.1-3.19.22-4.78a310,310,0,0,1,76.72-11,38,38,0,0,0,3.29,4.93l.8,1a277.77,277.77,0,0,0-87.18,66.47L90,442.73l12,10.54,15.88-18.15a261.6,261.6,0,0,1,85.47-64.17,57.82,57.82,0,0,0,89.25,0,261.51,261.51,0,0,1,85.47,64.18L394,453.27l12-10.54-15.88-18.14A277.64,277.64,0,0,0,303,358.11l.8-1a38.15,38.15,0,0,0,3.3-4.94,310.36,310.36,0,0,1,76.72,11c.12,1.59.22,3.17.22,4.78,0,.8-.09,1.57-.12,2.36l3.55-6.06A309.83,309.83,0,0,1,452.12,391l7.77-14a325.79,325.79,0,0,0-64.16-26.95l25.42-43.56A136.7,136.7,0,0,0,439,220.71a115.45,115.45,0,0,0,49-94.4c0-9.21.47-18.55,1.38-27.75l4.18-41.88C495.18,40.57,496,24.2,496,8V0ZM357.36,62A156.91,156.91,0,0,1,468.3,16h11.63c-.05,2.83-.23,5.66-.32,8.5A172.36,172.36,0,0,0,370,74.64l-7.92,7.92a138.62,138.62,0,0,0-14.37-11ZM24,126.31c0-9.75-.5-19.62-1.46-29.34L18.35,55.09c-.48-4.8-.82-9.65-1.15-14.48a157.73,157.73,0,0,1,24.55,4.08A157.4,157.4,0,0,1,76.3,57.82L83.7,43.63A173.35,173.35,0,0,0,45.63,29.16,173.49,173.49,0,0,0,16.39,24.5c-.1-2.83-.27-5.66-.32-8.5H27.7A156.83,156.83,0,0,1,138.64,61.94l9.59,9.6a141.76,141.76,0,0,0-14.37,11l-7.92-7.92a174,174,0,0,0-25.48-21L91.52,66.88a158.8,158.8,0,0,1,23.12,19.07l7.79,7.79A136.55,136.55,0,0,0,107,114.27L76.32,164.49a138.33,138.33,0,0,0-16.1,38.6A99.43,99.43,0,0,1,24,126.31ZM248,376a41.71,41.71,0,0,1-32.74-15.73l-10.52-13.15A21.61,21.61,0,0,1,221.61,312h52.78a21.61,21.61,0,0,1,16.87,35.12l-10.52,13.15A41.73,41.73,0,0,1,248,376Zm159.32-77.55-27.47,47.09s0,.09,0,.13a326.41,326.41,0,0,0-68.12-9.34c.06-.91.23-1.8.23-2.71A37.65,37.65,0,0,0,274.39,296H221.61A37.65,37.65,0,0,0,184,333.62c0,.91.17,1.81.23,2.71a325.81,325.81,0,0,0-68.12,9.34s0-.09,0-.13L88.69,298.45A122.5,122.5,0,0,1,90,172.84l30.69-50.22A123.25,123.25,0,0,1,225.18,64h45.62a123.23,123.23,0,0,1,104.52,58.62L406,172.84a122.5,122.5,0,0,1,1.3,125.61ZM473.46,97c-1,9.73-1.46,19.6-1.46,29.34a99.46,99.46,0,0,1-36.22,76.79,138.37,138.37,0,0,0-16.1-38.6L389,114.28a135.56,135.56,0,0,0-15.43-20.54L381.36,86a156.45,156.45,0,0,1,97.43-45.34c-.34,4.84-.66,9.68-1.14,14.48Zm0,0"/><path d="M344,168a47,47,0,0,0-33,13.66L292.69,200,311,218.34a46.63,46.63,0,0,0,65.94,0L395.31,200,377,181.66A47,47,0,0,0,344,168Zm21.66,39a30.63,30.63,0,0,1-43.31,0l-7-7,7-7a30.63,30.63,0,0,1,43.31,0l7,7Zm0,0"/><rect x="264" y="328" width="16" height="16"/><rect x="216" y="328" width="16" height="16"/></g></g></svg>